<svg width="164" height="35" viewBox="0 0 164 35" fill="none" xmlns="http://www.w3.org/2000/svg">
<g clip-path="url(#clip0_1_116)">
<path d="M0.173889 22.3943L11.8335 17.3411L18.5445 21.1308L19.9002 33.564L11.6301 33.4979L12.8503 24.8539L11.4267 24.0561L4.4445 29.3753L0.173889 22.3943Z" fill="#81818B"/>
<path d="M19.2906 20.5985L29.5945 27.9783L33.6616 20.8645L25.3913 17.6066V16.0109L33.6616 12.6866L29.5945 5.63892L19.2906 13.019V20.5985Z" fill="#81818B"/>
<path d="M18.5445 12.4209L19.9002 -0.012207L11.6301 0.120775L12.8503 8.76406L11.4267 9.5619L4.37672 4.24297L0.173889 11.1576L11.8335 16.2107L18.5445 12.4209Z" fill="#81818B"/>
<path d="M61.2524 15.2858V26.934H65.7034V12.0895H59.2217V15.2858H61.2524Z" fill="#81818B"/>
<path d="M61.1133 10.0038C61.5213 10.4191 62.1429 10.6267 62.9771 10.6267C63.8124 10.6267 64.424 10.4191 64.813 10.0038C65.2215 9.57023 65.4252 9.02843 65.4252 8.37848C65.4252 7.71021 65.2215 7.16846 64.813 6.75319C64.424 6.3198 63.8124 6.10303 62.9771 6.10303C62.1429 6.10303 61.5213 6.3198 61.1133 6.75319C60.7243 7.16846 60.5295 7.71021 60.5295 8.37848C60.5295 9.02843 60.7243 9.57023 61.1133 10.0038Z" fill="#81818B"/>
<path d="M45.7576 26.6087C47.0186 27.1685 48.5669 27.4486 50.4028 27.4486C52.128 27.4486 53.6111 27.1864 54.8543 26.6629C56.097 26.1393 57.0519 25.4078 57.7192 24.4686C58.4059 23.5115 58.7487 22.401 58.7487 21.1368C58.7487 19.9089 58.4248 18.8705 57.7754 18.0216C57.1443 17.1549 56.2639 16.4777 55.1325 15.9902C54.0012 15.4844 52.6934 15.1684 51.2097 15.0422L49.6521 14.9067C48.7249 14.8343 48.0571 14.5907 47.6492 14.1752C47.2407 13.7599 47.037 13.2722 47.037 12.7126C47.037 12.279 47.1489 11.8818 47.3704 11.5206C47.5935 11.1414 47.9269 10.8434 48.3721 10.6266C48.8362 10.4101 49.4016 10.3017 50.0694 10.3017C50.774 10.3017 51.3583 10.4279 51.8219 10.6809C51.9237 10.7344 52.0209 10.7915 52.1117 10.8521L52.1337 10.8672C52.1678 10.8901 52.2015 10.9139 52.234 10.9379C52.5159 11.1474 52.7401 11.3959 52.9071 11.6832C53.1475 12.0805 53.2688 12.5228 53.2688 13.0105H57.7192C57.7192 11.7101 57.4131 10.5815 56.8015 9.62447C56.1899 8.64928 55.3089 7.8999 54.1592 7.376C53.0273 6.83425 51.6644 6.56335 50.0694 6.56335C48.5485 6.56335 47.2318 6.81635 46.1188 7.32193C45.0063 7.8096 44.1348 8.51383 43.5043 9.43468C42.8916 10.3557 42.5856 11.4484 42.5856 12.7126C42.5856 14.4642 43.1888 15.8727 44.3942 16.9383C45.5996 18.0037 47.2134 18.6177 49.2347 18.7802L50.7651 18.9157C52.0072 19.0241 52.9071 19.2679 53.4636 19.6469C54.0195 20.0081 54.2978 20.5047 54.2978 21.1368C54.2978 21.4273 54.249 21.6997 54.1513 21.9543C54.0789 22.1433 53.9791 22.3222 53.8531 22.4913C53.5554 22.8703 53.1202 23.1683 52.5453 23.3854C51.9704 23.6019 51.2565 23.7102 50.4028 23.7102C49.4573 23.7102 48.6876 23.584 48.0944 23.3308C47.5006 23.0601 47.0559 22.7079 46.7583 22.2748C46.4805 21.8411 46.3419 21.3717 46.3419 20.8659H41.9183C41.9183 22.1481 42.2427 23.286 42.8916 24.2789C43.5411 25.2543 44.496 26.0311 45.7576 26.6087Z" fill="#81818B"/>
<path d="M75.6348 27.1233C74.095 27.1233 72.8528 26.943 71.9068 26.5815C70.9607 26.2025 70.2656 25.5792 69.8204 24.7125C69.3941 23.8275 69.1805 22.6359 69.1805 21.1368V15.2587H66.8715V12.0895H69.1805V8.08057H73.3253V12.0895H77.7768V15.2587H73.3253V21.2996C73.3253 22.0038 73.5112 22.5455 73.8818 22.9245C74.2714 23.286 74.8184 23.4664 75.5235 23.4664H77.7768V27.1233H75.6348Z" fill="#81818B"/>
<path fill-rule="evenodd" clip-rule="evenodd" d="M83.136 26.7984C84.1372 27.2316 85.2875 27.4486 86.5853 27.4486C87.8647 27.4486 88.9966 27.2316 89.9794 26.7984C90.9622 26.3648 91.7786 25.7599 92.4275 24.9836C93.0764 24.2068 93.5127 23.3218 93.7347 22.3289H89.6455C89.4602 22.7804 89.1079 23.1594 88.5887 23.4663C88.0695 23.7733 87.4011 23.9272 86.5853 23.9272C86.0797 23.9272 85.6282 23.8686 85.2303 23.7522C84.9273 23.6637 84.6559 23.5415 84.4155 23.3854C83.859 23.0243 83.451 22.5182 83.1912 21.8683C83.1192 21.6832 83.0578 21.4895 83.0058 21.2878C82.9528 21.0834 82.9103 20.8708 82.8783 20.6494H94.013V19.1865C94.013 17.8321 93.7164 16.5861 93.1231 15.4485C92.5293 14.2925 91.6668 13.3625 90.5359 12.6583C89.4229 11.9359 88.0506 11.5747 86.4183 11.5747C85.1757 11.5747 84.0627 11.7915 83.0799 12.2249C82.116 12.6402 81.309 13.209 80.6601 13.9314C80.0112 14.6537 79.5104 15.4756 79.1571 16.3966C78.8237 17.2993 78.6567 18.2474 78.6567 19.2407V19.7824C78.6567 20.7397 78.8237 21.6786 79.1571 22.5997C79.5104 23.5026 80.0112 24.3241 80.6601 25.0646C81.3274 25.7872 82.1522 26.3648 83.136 26.7984ZM82.9549 17.9708C82.967 17.9135 82.9801 17.857 82.9943 17.8014C83.0331 17.6483 83.0772 17.5015 83.1282 17.3613C83.1565 17.2814 83.187 17.2035 83.2195 17.1278C83.4972 16.4596 83.9057 15.954 84.4433 15.611C84.6444 15.4827 84.8622 15.3784 85.0959 15.2982C85.4896 15.1636 85.9306 15.0963 86.4183 15.0963C87.1791 15.0963 87.8091 15.2679 88.3099 15.611C88.8291 15.9359 89.2187 16.4145 89.4786 17.0465C89.4996 17.0975 89.5195 17.1495 89.5389 17.202C89.5694 17.2858 89.5983 17.3717 89.6245 17.4598C89.6639 17.5909 89.698 17.7266 89.7285 17.8668C89.7505 17.9702 89.7694 18.076 89.7862 18.1844H82.9119C82.925 18.112 82.9392 18.0409 82.9549 17.9708Z" fill="#81818B"/>
<path d="M95.8499 26.934V12.0895H99.3832V15.8282C99.4309 15.6059 99.4855 15.3926 99.5464 15.1881C99.5989 15.0157 99.6551 14.8495 99.7165 14.6899C100.106 13.6785 100.69 12.9202 101.469 12.4144C102.248 11.8907 103.203 11.629 104.335 11.629H104.529C105.679 11.629 106.634 11.8907 107.395 12.4144C108.174 12.9202 108.758 13.6785 109.147 14.6899L109.178 14.7662L109.204 14.836C109.222 14.7867 109.24 14.7381 109.258 14.6899C109.666 13.6785 110.26 12.9202 111.039 12.4144C111.818 11.8907 112.773 11.629 113.905 11.629H114.099C115.249 11.629 116.213 11.8907 116.992 12.4144C117.79 12.9202 118.393 13.6785 118.8 14.6899C119.208 15.7012 119.413 16.9654 119.413 18.4823V26.934H114.961V18.2384C114.961 17.4258 114.739 16.7667 114.294 16.2611C113.867 15.7553 113.255 15.5025 112.458 15.5025C111.66 15.5025 111.03 15.7645 110.566 16.2881C110.103 16.7937 109.871 17.4709 109.871 18.3198V26.934H105.392V18.2384C105.392 17.4258 105.169 16.7667 104.724 16.2611C104.298 15.7553 103.694 15.5025 102.916 15.5025C102.1 15.5025 101.46 15.7645 100.996 16.2881C100.533 16.7937 100.301 17.4709 100.301 18.3198V26.934H95.8499Z" fill="#81818B"/>
<path fill-rule="evenodd" clip-rule="evenodd" d="M131.303 24.0736V26.9341H134.835V17.8322C134.835 16.4597 134.557 15.3402 134.001 14.4732C133.444 13.5883 132.629 12.9293 131.553 12.4959C130.496 12.0625 129.188 11.8457 127.63 11.8457C127.293 11.8457 126.94 11.8492 126.573 11.8564C126.356 11.8608 126.133 11.8662 125.906 11.8728C125.293 11.8909 124.7 11.9179 124.125 11.9541L123.686 11.9829C123.46 11.9982 123.249 12.0132 123.049 12.0285C122.9 12.0398 122.757 12.0512 122.623 12.0625V15.7195C123.198 15.6832 123.838 15.6471 124.543 15.6111C124.74 15.601 124.935 15.5916 125.129 15.5829C125.409 15.5703 125.685 15.5593 125.959 15.5498C126.175 15.5421 126.389 15.5353 126.601 15.5297C127.269 15.5116 127.807 15.5026 128.215 15.5026C129.03 15.5026 129.624 15.6922 129.995 16.0715C130.366 16.4507 130.551 17.0196 130.551 17.7782V17.8322H127.797C126.444 17.8322 125.247 18.0038 124.208 18.347C123.17 18.672 122.363 19.1866 121.789 19.8909C121.213 20.5773 120.926 21.4621 120.926 22.5456C120.926 23.5389 121.158 24.3967 121.621 25.1193C122.085 25.8231 122.725 26.3649 123.541 26.7439C124.376 27.1234 125.34 27.3131 126.434 27.3131C127.491 27.3131 128.382 27.1234 129.105 26.7439C129.847 26.3649 130.422 25.8231 130.83 25.1193C130.902 25.0003 130.968 24.8772 131.031 24.7493C131.119 24.5685 131.198 24.3783 131.267 24.1787L131.303 24.0736ZM130.551 21.4351V20.2431H127.769C126.99 20.2431 126.388 20.4327 125.961 20.812C125.553 21.1732 125.349 21.6698 125.349 22.3018C125.349 22.5993 125.4 22.8696 125.501 23.1134C125.604 23.3577 125.757 23.5747 125.961 23.7644C126.388 24.126 126.99 24.3063 127.769 24.3063C127.917 24.3063 128.061 24.2991 128.199 24.2853C128.312 24.2736 128.422 24.2571 128.529 24.236C128.732 24.1958 128.925 24.1376 129.105 24.0624C129.513 23.8821 129.847 23.5841 130.106 23.1684C130.366 22.7532 130.515 22.1751 130.551 21.4351Z" fill="#81818B"/>
<path d="M137.499 26.9341V12.0895H141.033V16.9892C141.202 15.5905 141.628 14.4627 142.312 13.6065C143.24 12.4689 144.574 11.9 146.318 11.9H146.903V15.6381H145.79C144.566 15.6381 143.62 15.9631 142.952 16.6132C142.284 17.2453 141.95 18.1664 141.95 19.3761V26.9341H137.499Z" fill="#81818B"/>
<path d="M152.547 19.9993H154.021L158.834 26.9341H163.841L157.739 18.4174L162.756 12.0896H158.083L152.547 19.1478V7.15955H148.096V26.9341H152.547V19.9993Z" fill="#81818B"/>
</g>
<defs>
<clipPath id="clip0_1_116">
<rect width="164" height="35" fill="white"/>
</clipPath>
</defs>
</svg>
