<svg width="169" height="29" viewBox="0 0 169 29" fill="none" xmlns="http://www.w3.org/2000/svg">
<g clip-path="url(#clip0_1_102)">
<path d="M9.87562 3.29559C12.0298 1.33372 14.9549 0.188585 17.9195 0.0461529C18.9342 0.0461529 19.9518 0.0519279 20.9665 0.0432129C20.9147 1.08088 20.9665 2.12137 20.936 3.15898C20.7928 5.47838 19.8939 7.74544 18.3796 9.56488C16.4113 12.0122 13.4009 13.6543 10.2047 14.0787C8.80919 14.2938 7.39232 14.1572 5.98774 14.195C6.0121 13.0527 5.93592 11.9076 6.03037 10.7682C6.30463 7.9431 7.70317 5.23714 9.87562 3.29559Z" fill="#81818B"/>
<path d="M21.9061 0.0432129C22.9939 0.0548679 24.0816 0.0374383 25.1724 0.0490408C27.8872 0.232108 30.5655 1.22614 32.6098 2.94977C34.8645 4.79536 36.4096 7.43448 36.8054 10.2538C36.9792 11.5617 36.8695 12.8841 36.9367 14.1978C35.9859 14.195 35.0383 14.1921 34.0875 14.1978C31.7507 14.1368 29.4533 13.416 27.4972 12.2011C26.5953 11.5849 25.669 10.9601 24.9926 10.1055C23.5088 8.52438 22.5002 6.53925 22.1194 4.4466C21.8329 2.99329 21.9487 1.51101 21.9061 0.0432129Z" fill="#81818B"/>
<path d="M5.98978 15.0291C6.95567 15.0813 7.92461 14.9854 8.88741 15.0872C13.0099 15.1714 17.0106 17.3804 19.1464 20.7432C20.3714 22.6266 21.0295 24.8589 20.9442 27.0763C20.9411 27.8035 20.9533 28.5269 20.932 29.2509C19.4024 29.2068 17.8576 29.326 16.3432 29.044C12.9795 28.5038 9.88685 26.5939 8.0251 23.8677C6.61437 21.8854 5.91055 19.4644 5.98369 17.0723C5.98369 16.3892 5.98369 15.7091 5.98978 15.0291Z" fill="#81818B"/>
<path d="M31.7884 15.337C33.446 14.9853 35.1548 15.0434 36.8401 15.0434L36.9136 15.1132C36.8768 16.6333 37.0018 18.1708 36.6821 19.6735C36.0085 23.045 33.6686 26.0559 30.5209 27.7097C28.5617 28.7506 26.3131 29.2619 24.0736 29.2388C23.3576 29.242 22.6385 29.2273 21.9225 29.2472C21.9225 27.9888 21.8676 26.7248 22.0169 25.4717C22.3643 22.4404 24.0827 19.6182 26.5538 17.7116C28.0833 16.5606 29.8811 15.7265 31.7884 15.337Z" fill="#81818B"/>
<path d="M49.4217 23.6211C49.4217 24.1328 49.2359 24.5657 48.8652 24.92C48.514 25.2547 48.0704 25.422 47.5344 25.422C47.0183 25.422 46.5852 25.2547 46.2345 24.92C45.8838 24.5657 45.7084 24.1328 45.7084 23.6211V5.37753C45.7084 4.86582 45.8838 4.44272 46.2345 4.10819C46.6056 3.75392 47.0598 3.57678 47.5963 3.57678C48.1323 3.57678 48.5654 3.75392 48.8957 4.10819C49.2464 4.44272 49.4217 4.86582 49.4217 5.37753V23.6211Z" fill="#81818B"/>
<path d="M64.3275 9.62842C64.8636 9.62842 65.3072 9.8055 65.6584 10.1598C66.0086 10.4943 66.1839 10.9174 66.1839 11.4291V18.9273C66.1839 21.0134 65.5754 22.6665 64.3585 23.8867C63.141 25.1069 61.3875 25.7168 59.0969 25.7168C56.8074 25.7168 55.0534 25.1069 53.8365 23.8867C52.64 22.6665 52.0415 21.0134 52.0415 18.9273V11.4291C52.0415 10.9174 52.2168 10.4943 52.5675 10.1598C52.9182 9.8055 53.3618 9.62842 53.8984 9.62842C54.4349 9.62842 54.878 9.8055 55.2287 10.1598C55.58 10.4943 55.7553 10.9174 55.7553 11.4291V18.9273C55.7553 20.1278 56.0341 21.0232 56.5906 21.6136C57.1476 22.1844 57.9834 22.4697 59.0969 22.4697C60.2325 22.4697 61.0778 22.1844 61.6353 21.6136C62.1918 21.0232 62.4706 20.1278 62.4706 18.9273V11.4291C62.4706 10.9174 62.646 10.4943 62.9967 10.1598C63.3474 9.8055 63.791 9.62842 64.3275 9.62842Z" fill="#81818B"/>
<path d="M77.3533 9.33325C79.0039 9.33325 80.2208 9.71698 81.0052 10.4845C81.789 11.2324 82.3051 12.2065 82.5524 13.407L82.0263 13.1413L82.2741 12.669C82.5214 12.2163 82.9031 11.7342 83.4191 11.2225C83.9347 10.6912 84.5537 10.2484 85.2756 9.89411C86.0184 9.52015 86.8437 9.33325 87.7514 9.33325C89.2372 9.33325 90.3612 9.63828 91.1246 10.2483C91.9089 10.8584 92.4449 11.6752 92.7337 12.6986C93.023 13.7022 93.1674 14.824 93.1674 16.0639V23.6211C93.1674 24.1328 92.992 24.5656 92.6408 24.92C92.2901 25.2547 91.847 25.422 91.3104 25.422C90.7744 25.422 90.3302 25.2547 89.9795 24.92C89.6288 24.5656 89.4535 24.1328 89.4535 23.6211V16.0639C89.4535 15.4144 89.3711 14.8339 89.2062 14.3221C89.0409 13.7908 88.7416 13.3677 88.3085 13.0528C87.8753 12.7379 87.2564 12.5804 86.4521 12.5804C85.6677 12.5804 84.9973 12.7379 84.4403 13.0528C83.8827 13.3677 83.4601 13.7908 83.1713 14.3221C82.9031 14.8339 82.7687 15.4144 82.7687 16.0639V23.6211C82.7687 24.1328 82.5933 24.5656 82.2431 24.92C81.8925 25.2547 81.4483 25.422 80.9123 25.422C80.3757 25.422 79.9321 25.2547 79.5819 24.92C79.2307 24.5656 79.0553 24.1328 79.0553 23.6211V16.0639C79.0553 15.4144 78.9729 14.8339 78.8075 14.3221C78.6427 13.7908 78.3434 13.3677 77.9103 13.0528C77.4772 12.7379 76.8577 12.5804 76.0534 12.5804C75.2696 12.5804 74.5991 12.7379 74.0416 13.0528C73.4851 13.3677 73.0619 13.7908 72.7732 14.3221C72.5049 14.8339 72.371 15.4144 72.371 16.0639V23.6211C72.371 24.1328 72.1957 24.5656 71.845 24.92C71.4938 25.2547 71.0507 25.422 70.5141 25.422C69.9776 25.422 69.5345 25.2547 69.1832 24.92C68.8325 24.5656 68.6572 24.1328 68.6572 23.6211V11.4292C68.6572 10.9175 68.8325 10.4943 69.1832 10.1598C69.5345 9.80554 69.9776 9.62846 70.5141 9.62846C71.0507 9.62846 71.4938 9.80554 71.845 10.1598C72.1957 10.4943 72.371 10.9175 72.371 11.4292V12.6986L71.9064 12.61C72.0923 12.2754 72.3506 11.9211 72.6803 11.5472C73.0105 11.1536 73.4126 10.7895 73.8872 10.455C74.3618 10.1204 74.8879 9.85473 75.4654 9.65791C76.0434 9.44145 76.6729 9.33325 77.3533 9.33325Z" fill="#81818B"/>
<path d="M99.1361 23.6211C99.1361 24.1328 98.9607 24.5656 98.6095 24.92C98.2593 25.2547 97.8157 25.422 97.2791 25.422C96.7431 25.422 96.299 25.2547 95.9483 24.92C95.5981 24.5656 95.4227 24.1328 95.4227 23.6211V11.4292C95.4227 10.9175 95.5981 10.4943 95.9483 10.1598C96.299 9.80555 96.7431 9.62846 97.2791 9.62846C97.8157 9.62846 98.2593 9.80555 98.6095 10.1598C98.9607 10.4943 99.1361 10.9175 99.1361 11.4292V23.6211ZM97.2482 7.70959C96.5468 7.70959 96.0517 7.60139 95.7624 7.38488C95.4742 7.16842 95.3298 6.78464 95.3298 6.2336V5.67269C95.3298 5.10202 95.4847 4.71819 95.7934 4.52142C96.1236 4.30491 96.6192 4.19666 97.2791 4.19666C98.0015 4.19666 98.5071 4.30491 98.7953 4.52142C99.0846 4.73788 99.229 5.12165 99.229 5.67269V6.2336C99.229 6.80433 99.0741 7.19792 98.7644 7.41438C98.4557 7.6112 97.9496 7.70959 97.2482 7.70959Z" fill="#81818B"/>
<path d="M110.256 9.33325C111.783 9.33325 112.938 9.63828 113.722 10.2483C114.527 10.8584 115.073 11.6752 115.362 12.6986C115.672 13.7022 115.826 14.824 115.826 16.0639V23.6211C115.826 24.1328 115.651 24.5656 115.3 24.92C114.95 25.2547 114.506 25.422 113.969 25.422C113.433 25.422 112.99 25.2547 112.639 24.92C112.288 24.5656 112.112 24.1328 112.112 23.6211V16.0639C112.112 15.4144 112.02 14.8339 111.835 14.3221C111.669 13.7908 111.36 13.3677 110.906 13.0528C110.452 12.7379 109.802 12.5804 108.956 12.5804C108.131 12.5804 107.429 12.7379 106.852 13.0528C106.295 13.3677 105.862 13.7908 105.552 14.3221C105.263 14.8339 105.118 15.4144 105.118 16.0639V23.6211C105.118 24.1328 104.944 24.5656 104.593 24.92C104.242 25.2547 103.798 25.422 103.262 25.422C102.725 25.422 102.282 25.2547 101.932 24.92C101.58 24.5656 101.405 24.1328 101.405 23.6211V11.4292C101.405 10.9175 101.58 10.4943 101.932 10.1598C102.282 9.80554 102.725 9.62846 103.262 9.62846C103.798 9.62846 104.242 9.80554 104.593 10.1598C104.944 10.4943 105.118 10.9175 105.118 11.4292V12.6986L104.655 12.61C104.841 12.2754 105.108 11.9211 105.459 11.5472C105.81 11.1536 106.223 10.7895 106.697 10.455C107.172 10.1204 107.708 9.85473 108.306 9.65791C108.905 9.44145 109.555 9.33325 110.256 9.33325Z" fill="#81818B"/>
<path d="M134.2 17.5398C134.2 19.1536 133.818 20.5805 133.055 21.8203C132.312 23.0405 131.301 23.995 130.022 24.6837C128.763 25.3728 127.35 25.7168 125.782 25.7168C124.214 25.7168 122.79 25.3728 121.512 24.6837C120.253 23.995 119.242 23.0405 118.479 21.8203C117.736 20.5805 117.365 19.1536 117.365 17.5398C117.365 15.9261 117.736 14.5091 118.479 13.2889C119.242 12.0491 120.253 11.0848 121.512 10.396C122.79 9.68747 124.214 9.33325 125.782 9.33325C127.35 9.33325 128.763 9.68747 130.022 10.396C131.301 11.0848 132.312 12.0491 133.055 13.2889C133.818 14.5091 134.2 15.9261 134.2 17.5398ZM130.486 17.5398C130.486 16.5362 130.27 15.6703 129.836 14.9421C129.423 14.1942 128.856 13.6137 128.134 13.2004C127.433 12.7871 126.649 12.5804 125.782 12.5804C124.916 12.5804 124.121 12.7871 123.399 13.2004C122.698 13.6137 122.13 14.1942 121.697 14.9421C121.285 15.6703 121.078 16.5362 121.078 17.5398C121.078 18.5239 121.285 19.3898 121.697 20.1377C122.13 20.8658 122.698 21.4365 123.399 21.8498C124.121 22.2632 124.916 22.4697 125.782 22.4697C126.649 22.4697 127.433 22.2632 128.134 21.8498C128.856 21.4365 129.423 20.8658 129.836 20.1377C130.27 19.3898 130.486 18.5239 130.486 17.5398Z" fill="#81818B"/>
<path d="M148.041 9.62842C148.577 9.62842 149.021 9.8055 149.372 10.1598C149.722 10.4943 149.898 10.9174 149.898 11.4291V18.9273C149.898 21.0134 149.289 22.6665 148.072 23.8867C146.854 25.1069 145.101 25.7168 142.811 25.7168C140.521 25.7168 138.767 25.1069 137.55 23.8867C136.353 22.6665 135.755 21.0134 135.755 18.9273V11.4291C135.755 10.9174 135.93 10.4943 136.281 10.1598C136.632 9.8055 137.075 9.62842 137.612 9.62842C138.148 9.62842 138.592 9.8055 138.943 10.1598C139.293 10.4943 139.469 10.9174 139.469 11.4291V18.9273C139.469 20.1278 139.747 21.0232 140.304 21.6136C140.861 22.1844 141.697 22.4697 142.811 22.4697C143.945 22.4697 144.792 22.1844 145.348 21.6136C145.906 21.0232 146.184 20.1278 146.184 18.9273V11.4291C146.184 10.9174 146.36 10.4943 146.71 10.1598C147.061 9.8055 147.505 9.62842 148.041 9.62842Z" fill="#81818B"/>
<path d="M151.411 22.9716C151.205 22.6961 151.112 22.3419 151.133 21.9089C151.154 21.4759 151.422 21.102 151.938 20.7871C152.268 20.5903 152.618 20.5116 152.99 20.551C153.361 20.5707 153.722 20.7477 154.073 21.0823C154.672 21.653 155.301 22.0958 155.961 22.4107C156.621 22.7256 157.446 22.883 158.436 22.883C158.746 22.8633 159.086 22.824 159.458 22.765C159.829 22.6863 160.149 22.5288 160.417 22.2927C160.705 22.0368 160.85 21.653 160.85 21.1413C160.85 20.7084 160.695 20.364 160.386 20.1081C160.076 19.8523 159.664 19.6359 159.148 19.4587C158.653 19.2816 158.096 19.1143 157.477 18.9569C156.837 18.7797 156.177 18.583 155.496 18.3665C154.836 18.15 154.227 17.8745 153.67 17.5398C153.114 17.1856 152.66 16.7232 152.309 16.1524C151.958 15.5817 151.783 14.8633 151.783 13.9975C151.783 13.0134 152.071 12.177 152.649 11.4882C153.227 10.7994 153.97 10.2681 154.877 9.89411C155.806 9.52015 156.775 9.33325 157.786 9.33325C158.426 9.33325 159.096 9.41195 159.798 9.5694C160.499 9.70716 161.17 9.9433 161.81 10.2779C162.449 10.5927 162.986 11.0159 163.419 11.5472C163.645 11.8424 163.78 12.1967 163.821 12.61C163.862 13.0233 163.666 13.3972 163.233 13.7318C162.924 13.9679 162.563 14.0762 162.15 14.0565C161.738 14.0171 161.397 13.8794 161.129 13.6432C160.778 13.2102 160.304 12.8658 159.705 12.61C159.127 12.3542 158.457 12.2262 157.694 12.2262C157.384 12.2262 157.044 12.2656 156.672 12.3443C156.322 12.4033 156.012 12.551 155.744 12.7871C155.476 13.0036 155.342 13.3578 155.342 13.8498C155.342 14.3025 155.496 14.6666 155.806 14.9421C156.115 15.1979 156.528 15.4144 157.044 15.5916C157.58 15.749 158.148 15.9065 158.746 16.0639C159.365 16.2213 159.994 16.4083 160.634 16.6247C161.274 16.8413 161.861 17.1266 162.398 17.4808C162.934 17.8351 163.367 18.2976 163.697 18.8683C164.028 19.4193 164.192 20.1278 164.192 20.9938C164.192 21.9975 163.883 22.8536 163.264 23.562C162.645 24.2706 161.871 24.8117 160.943 25.1857C160.015 25.5401 159.065 25.7168 158.096 25.7168C156.879 25.7168 155.662 25.5204 154.444 25.1267C153.227 24.7132 152.216 23.995 151.411 22.9716Z" fill="#81818B"/>
</g>
<defs>
<clipPath id="clip0_1_102">
<rect width="169" height="29" fill="white"/>
</clipPath>
</defs>
</svg>
