<svg width="173" height="37" viewBox="0 0 173 37" fill="none" xmlns="http://www.w3.org/2000/svg">
<g clip-path="url(#clip0_1_130)">
<path d="M49.2482 9.80042C50.8358 9.80042 52.2097 10.0559 53.3705 10.567C54.548 11.0781 55.4521 11.8034 56.0837 12.7432C56.7152 13.6829 57.0313 14.7957 57.0313 16.0816C57.0313 17.351 56.7152 18.4638 56.0837 19.42C55.4521 20.3597 54.548 21.0851 53.3705 21.5964C52.2097 22.0907 50.8358 22.3381 49.2482 22.3381H45.6388V27.1109H41.4918V9.80042H49.2482ZM49.0182 19.0738C50.2635 19.0738 51.2111 18.8183 51.8595 18.3072C52.5084 17.7796 52.8323 17.0378 52.8323 16.0816C52.8323 15.1089 52.5084 14.367 51.8595 13.856C51.2111 13.3284 50.2635 13.0647 49.0182 13.0647H45.6388V19.0738H49.0182Z" fill="#81818B"/>
<path d="M62.2451 15.5623C62.7223 14.9194 63.3628 14.433 64.1645 14.1033C64.984 13.7736 65.9222 13.6088 66.9806 13.6088V17.1697C66.5369 17.1368 66.2382 17.1203 66.0844 17.1203C64.9409 17.1203 64.0453 17.4335 63.3969 18.06C62.748 18.6699 62.4236 19.5932 62.4236 20.8296V27.111H58.4304V13.8066H62.2451V15.5623Z" fill="#81818B"/>
<path d="M74.5038 27.3085C73.0533 27.3085 71.7476 27.0203 70.5873 26.4431C69.4439 25.8498 68.5477 25.0334 67.8993 23.9948C67.251 22.9562 66.9265 21.7774 66.9265 20.4587C66.9265 19.1398 67.251 17.9611 67.8993 16.9224C68.5477 15.8838 69.4439 15.076 70.5873 14.499C71.7476 13.9055 73.0533 13.6088 74.5038 13.6088C75.9544 13.6088 77.2517 13.9055 78.3951 14.499C79.5386 15.076 80.4348 15.8838 81.0837 16.9224C81.7315 17.9611 82.056 19.1398 82.056 20.4587C82.056 21.7774 81.7315 22.9562 81.0837 23.9948C80.4348 25.0334 79.5386 25.8498 78.3951 26.4431C77.2517 27.0203 75.9544 27.3085 74.5038 27.3085ZM74.5038 24.1432C75.5281 24.1432 76.3644 23.8138 77.0128 23.1541C77.6785 22.4783 78.0108 21.5799 78.0108 20.4587C78.0108 19.3377 77.6785 18.4474 77.0128 17.7879C76.3644 17.112 75.5281 16.774 74.5038 16.774C73.4801 16.774 72.6354 17.112 71.9697 17.7879C71.304 18.4474 70.9711 19.3377 70.9711 20.4587C70.9711 21.5799 71.304 22.4783 71.9697 23.1541C72.6354 23.8138 73.4801 24.1432 74.5038 24.1432Z" fill="#81818B"/>
<path d="M100.163 9.80042V27.1109H96.7581L87.8231 16.6009V27.1109H83.7271V9.80042H87.1574L96.0666 20.3103V9.80042H100.163Z" fill="#81818B"/>
<path d="M108.396 13.6088C110.529 13.6088 112.168 14.1033 113.311 15.0925C114.455 16.0652 115.026 17.5407 115.026 19.519V27.111H111.289V25.4539C110.538 26.6905 109.139 27.3085 107.091 27.3085C106.032 27.3085 105.11 27.1357 104.325 26.7894C103.558 26.4431 102.969 25.9652 102.559 25.355C102.15 24.7452 101.945 24.0525 101.945 23.2778C101.945 22.0413 102.423 21.0687 103.378 20.3598C104.351 19.6509 105.845 19.2965 107.859 19.2965H111.033C111.033 18.4556 110.769 17.8127 110.239 17.3676C109.71 16.9059 108.917 16.6751 107.859 16.6751C107.125 16.6751 106.399 16.7905 105.683 17.0214C104.983 17.2357 104.385 17.5325 103.89 17.9116L102.457 15.2161C103.208 14.7051 104.103 14.3094 105.144 14.0291C106.203 13.7489 107.287 13.6088 108.396 13.6088ZM108.089 24.7122C108.772 24.7122 109.377 24.5638 109.906 24.2669C110.435 23.9536 110.811 23.5004 111.033 22.9067V21.547H108.294C106.655 21.547 105.836 22.066 105.836 23.1047C105.836 23.5994 106.032 23.9948 106.425 24.2917C106.834 24.572 107.389 24.7122 108.089 24.7122Z" fill="#81818B"/>
<path d="M126.244 26.4678C125.852 26.7481 125.365 26.9625 124.785 27.1109C124.222 27.2425 123.624 27.3084 122.993 27.3084C121.355 27.3084 120.083 26.9048 119.179 26.0971C118.291 25.289 117.847 24.102 117.847 22.536V17.0708H115.723V14.1033H117.847V10.8638H121.841V14.1033H125.271V17.0708H121.841V22.4865C121.841 23.0469 121.986 23.4839 122.276 23.7972C122.583 24.0937 123.01 24.2421 123.556 24.2421C124.188 24.2421 124.725 24.0772 125.169 23.7478L126.244 26.4678Z" fill="#81818B"/>
<path d="M141.082 13.8066V27.111H137.293V25.5282C136.764 26.105 136.132 26.5503 135.398 26.8637C134.664 27.1605 133.871 27.3085 133.017 27.3085C131.208 27.3085 129.775 26.806 128.716 25.8003C127.658 24.7947 127.129 23.3026 127.129 21.3244V13.8066H131.123V20.7554C131.123 22.8985 132.053 23.9701 133.913 23.9701C134.869 23.9701 135.637 23.6737 136.218 23.0799C136.797 22.4701 137.088 21.5718 137.088 20.3846V13.8066H141.082Z" fill="#81818B"/>
<path d="M147.316 15.5623C147.793 14.9194 148.434 14.433 149.236 14.1033C150.055 13.7736 150.994 13.6088 152.052 13.6088V17.1697C151.608 17.1368 151.309 17.1203 151.156 17.1203C150.012 17.1203 149.116 17.4335 148.468 18.06C147.819 18.6699 147.495 19.5932 147.495 20.8296V27.111H143.501V13.8066H147.316V15.5623Z" fill="#81818B"/>
<path d="M166.513 20.5084C166.513 20.5574 166.488 20.9037 166.436 21.547H156.017C156.204 22.3712 156.648 23.0222 157.348 23.5004C158.048 23.9783 158.918 24.2174 159.959 24.2174C160.676 24.2174 161.307 24.1185 161.853 23.9206C162.417 23.7066 162.937 23.3768 163.415 22.9315L165.54 25.1571C164.243 26.5915 162.348 27.3085 159.856 27.3085C158.304 27.3085 156.93 27.0203 155.735 26.4431C154.54 25.8498 153.619 25.0334 152.97 23.9948C152.321 22.9562 151.997 21.7774 151.997 20.4587C151.997 19.1563 152.313 17.9858 152.945 16.9472C153.593 15.892 154.472 15.076 155.581 14.499C156.708 13.9055 157.962 13.6088 159.345 13.6088C160.693 13.6088 161.913 13.889 163.006 14.4495C164.098 15.01 164.951 15.8179 165.566 16.873C166.197 17.9116 166.513 19.1233 166.513 20.5084ZM159.37 16.5268C158.466 16.5268 157.706 16.774 157.092 17.2686C156.477 17.7633 156.102 18.4392 155.965 19.2965H162.75C162.613 18.4556 162.237 17.7879 161.623 17.2934C161.009 16.7823 160.258 16.5268 159.37 16.5268Z" fill="#81818B"/>
<path fill-rule="evenodd" clip-rule="evenodd" d="M18.748 0.160183C18.1395 -0.179859 17.3893 -0.179859 16.7808 0.160183C12.4588 2.57524 9.54371 7.09386 9.54371 12.2725C9.54371 13.0105 9.60299 13.7352 9.71702 14.4423C6.74179 13.4663 3.52028 13.8214 0.888984 15.286C0.279932 15.6251 -0.0952337 16.2526 -0.0946037 16.9317C-0.0915062 20.5141 1.83503 24.0055 5.28533 25.9297C6.97804 26.8739 8.82557 27.3225 10.6479 27.3233C10.3707 28.0824 10.2198 28.8987 10.2198 29.7493C10.2198 33.7743 13.5976 37.0366 17.7641 37.0366C21.9309 37.0366 25.3084 33.7743 25.3084 29.7493C25.3084 28.8966 25.1568 28.0786 24.8785 27.3184C26.5923 27.266 28.3184 26.8166 29.9079 25.9297C33.3586 24.0055 35.2848 20.5141 35.2874 16.9318C35.2885 16.2528 34.9131 15.6252 34.3041 15.2862C31.7767 13.8792 28.7042 13.4961 25.8291 14.3333C25.932 13.6608 25.9849 12.9727 25.9849 12.2725C25.9849 7.09386 23.0701 2.57524 18.748 0.160183ZM13.4724 12.2725C13.4724 8.90963 15.1581 5.92531 17.7644 4.06771C20.3707 5.92531 22.0564 8.90963 22.0564 12.2725C22.0564 15.6352 20.3707 18.6196 17.7644 20.4771C15.1581 18.6196 13.4724 15.6352 13.4724 12.2725ZM25.5115 18.5744C27.3256 17.5626 29.4217 17.445 31.2528 18.0851C30.9115 19.937 29.7576 21.6315 27.9436 22.6433C26.1296 23.655 24.0334 23.7725 22.2024 23.1327C22.5438 21.2806 23.6975 19.5861 25.5115 18.5744ZM3.94049 18.085C5.77148 17.4448 7.8676 17.5625 9.68163 18.5742C11.4958 19.5859 12.6493 21.2806 12.9909 23.1322C11.1598 23.7725 9.06376 23.655 7.24967 22.6433C5.43564 21.6315 4.28206 19.9368 3.94049 18.085ZM14.1485 29.7493C14.1485 27.8205 15.7673 26.2567 17.7641 26.2567C19.7609 26.2567 21.3798 27.8205 21.3798 29.7493C21.3798 31.678 19.7609 33.2419 17.7641 33.2419C15.7673 33.2419 14.1485 31.678 14.1485 29.7493Z" fill="#81818B"/>
</g>
<defs>
<clipPath id="clip0_1_130">
<rect width="173" height="37" fill="white"/>
</clipPath>
</defs>
</svg>
