<svg width="164" height="30" viewBox="0 0 164 30" fill="none" xmlns="http://www.w3.org/2000/svg">
<g clip-path="url(#clip0_1_142)">
<path d="M52.8865 26.8316C50.5298 26.8316 48.4466 26.3567 46.6369 25.4079C44.8267 24.4371 43.4276 23.0673 42.4385 21.2989C41.4499 19.5302 40.9554 17.4487 40.9554 15.0545C40.9554 12.6603 41.4499 10.5789 42.4385 8.81019C43.4276 7.01988 44.8267 5.65026 46.6369 4.70117C48.4466 3.73055 50.5298 3.24524 52.8865 3.24524C54.4862 3.24524 55.8958 3.41781 57.1165 3.76289C58.3581 4.08645 59.4942 4.6041 60.5253 5.31589V10.0072C59.5997 9.23076 58.5371 8.66996 57.3375 8.32482C56.1589 7.95816 54.8122 7.77483 53.2971 7.77483C51.8875 7.77483 50.6138 8.07681 49.4777 8.68072C48.3626 9.2631 47.4785 10.1043 46.8265 11.2043C46.1739 12.3044 45.8479 13.5877 45.8479 15.0545C45.8479 16.5428 46.1424 17.8477 46.7314 18.9694C47.342 20.0694 48.1941 20.9214 49.2882 21.5253C50.3823 22.1293 51.6454 22.4313 53.0761 22.4313C54.3807 22.4313 55.5168 22.194 56.4849 21.7195V17.3516H52.918V13.728H61.1248V24.6314C59.0416 26.098 56.2959 26.8316 52.8865 26.8316Z" fill="#81818B"/>
<path d="M62.2331 10.8161H66.8415V13.0486C67.4521 12.2936 68.3042 11.722 69.3983 11.3338C70.4924 10.924 71.7345 10.7191 73.1232 10.7191V14.4398C71.671 14.4398 70.3874 14.6663 69.2723 15.1192C68.1777 15.5722 67.4201 16.2624 66.9996 17.1899V26.3463H62.2331V10.8161Z" fill="#81818B"/>
<path d="M82.2829 26.8316C79.3786 26.8316 77.0954 26.1195 75.4332 24.6958C73.7705 23.2511 72.9395 21.2342 72.9395 18.6458C72.9395 16.079 73.676 14.0515 75.1492 12.5633C76.6433 11.0749 78.7685 10.3308 81.5253 10.3308C83.335 10.3308 84.8706 10.6759 86.1338 11.3661C87.3959 12.0563 88.354 13.0162 89.006 14.2456C89.6586 15.4535 89.9846 16.8232 89.9846 18.3546V20.3282H77.4849C77.8214 22.3127 79.6311 23.305 82.9139 23.305C83.882 23.305 84.8816 23.2187 85.9127 23.0459C86.9438 22.8734 87.8384 22.6361 88.596 22.3342V25.764C87.8594 26.0871 86.9123 26.3462 85.7547 26.5405C84.5976 26.7342 83.44 26.8316 82.2829 26.8316ZM85.4707 17.1575C85.4077 16.1222 85.0286 15.3241 84.3346 14.7633C83.64 14.181 82.6824 13.8897 81.4618 13.8897C80.2627 13.8897 79.3156 14.181 78.621 14.7633C77.9269 15.3457 77.5479 16.1438 77.4849 17.1575H85.4707Z" fill="#81818B"/>
<path d="M99.7543 26.8316C96.8505 26.8316 94.5673 26.1195 92.9046 24.6958C91.2425 23.2511 90.4109 21.2342 90.4109 18.6458C90.4109 16.079 91.1475 14.0515 92.6206 12.5633C94.1148 11.0749 96.24 10.3308 98.9967 10.3308C100.806 10.3308 102.343 10.6759 103.606 11.3661C104.868 12.0563 105.825 13.0162 106.477 14.2456C107.13 15.4535 107.456 16.8232 107.456 18.3546V20.3282H94.9563C95.2929 22.3127 97.1031 23.305 100.386 23.305C101.354 23.305 102.354 23.2187 103.384 23.0459C104.415 22.8734 105.31 22.6361 106.067 22.3342V25.764C105.331 26.0871 104.384 26.3462 103.227 26.5405C102.069 26.7342 100.912 26.8316 99.7543 26.8316ZM102.943 17.1575C102.879 16.1222 102.501 15.3241 101.807 14.7633C101.111 14.181 100.154 13.8897 98.9337 13.8897C97.7341 13.8897 96.7875 14.181 96.093 14.7633C95.3984 15.3457 95.0199 16.1438 94.9563 17.1575H102.943Z" fill="#81818B"/>
<path d="M108.515 10.8161H113.122V12.725C113.818 11.927 114.638 11.3338 115.585 10.9455C116.553 10.5357 117.563 10.3308 118.615 10.3308C120.678 10.3308 122.214 10.9024 123.223 12.0456C124.255 13.1672 124.771 14.6878 124.771 16.6075V26.3462H120.004V17.1575C120.004 15.1516 119.099 14.1486 117.289 14.1486C116.49 14.1486 115.743 14.3535 115.048 14.7633C114.354 15.1516 113.765 15.734 113.28 16.5104V26.3462H108.515V10.8161Z" fill="#81818B"/>
<path d="M128.975 8.42188C128.239 8.42188 127.619 8.17387 127.114 7.67774C126.608 7.18167 126.356 6.55613 126.356 5.80118C126.356 5.06786 126.608 4.45314 127.114 3.95702C127.619 3.43937 128.239 3.18054 128.975 3.18054C129.712 3.18054 130.333 3.43937 130.838 3.95702C131.343 4.45314 131.596 5.06786 131.596 5.80118C131.596 6.55613 131.343 7.18167 130.838 7.67774C130.333 8.17387 129.712 8.42188 128.975 8.42188ZM126.577 10.8161H131.375V26.3462H126.577V10.8161Z" fill="#81818B"/>
<path d="M139.504 26.8316C138.368 26.8316 137.147 26.7018 135.842 26.4431C134.559 26.2059 133.549 25.8608 132.812 25.4079V21.5901C133.654 22.1077 134.664 22.5283 135.842 22.8518C137.021 23.1752 138.115 23.337 139.125 23.337C139.988 23.337 140.619 23.2616 141.019 23.1108C141.418 22.9597 141.618 22.6793 141.618 22.2695C141.618 21.946 141.503 21.6871 141.271 21.493C141.04 21.2773 140.682 21.0939 140.198 20.943C139.735 20.7704 138.956 20.5224 137.862 20.1988C136.579 19.8106 135.568 19.4223 134.832 19.0341C134.117 18.6242 133.57 18.1174 133.191 17.5134C132.833 16.9095 132.654 16.1329 132.654 15.1839C132.654 13.5662 133.274 12.3583 134.517 11.5603C135.779 10.7406 137.483 10.3308 139.63 10.3308C140.682 10.3308 141.766 10.4494 142.881 10.6867C144.017 10.9024 144.891 11.1936 145.501 11.5603V15.281C144.891 14.8712 144.091 14.5368 143.102 14.278C142.134 14.0192 141.187 13.8897 140.261 13.8897C139.398 13.8897 138.725 13.976 138.241 14.1486C137.778 14.3212 137.546 14.6447 137.546 15.1192C137.546 15.529 137.767 15.8418 138.209 16.0575C138.672 16.2732 139.525 16.5428 140.766 16.8664L141.398 17.0281C142.723 17.3948 143.754 17.8046 144.491 18.2576C145.227 18.689 145.743 19.2174 146.038 19.8429C146.353 20.4469 146.511 21.2126 146.511 22.1401C146.511 23.5637 145.911 24.7068 144.712 25.5697C143.513 26.4107 141.776 26.8316 139.504 26.8316Z" fill="#81818B"/>
<path d="M147.613 2.4364H152.379V12.5956C153.095 11.8407 153.905 11.2799 154.809 10.9132C155.715 10.5249 156.683 10.3308 157.714 10.3308C159.776 10.3308 161.312 10.9024 162.322 12.0456C163.353 13.1672 163.869 14.6878 163.869 16.6076V26.3463H159.103V17.1576C159.103 15.1516 158.198 14.1486 156.388 14.1486C155.588 14.1486 154.842 14.3535 154.147 14.7633C153.452 15.1516 152.863 15.734 152.379 16.5104V26.3463H147.613V2.4364Z" fill="#81818B"/>
<path fill-rule="evenodd" clip-rule="evenodd" d="M24.6772 7.01421C24.6772 11.124 21.4271 14.4556 17.4175 14.4556C13.4079 14.4556 10.1575 11.124 10.1575 7.01421C10.1575 2.9044 13.4079 -0.427246 17.4175 -0.427246C21.4271 -0.427246 24.6772 2.9044 24.6772 7.01421ZM0.53023 13.9148C8.43977 13.3683 15.3332 19.4383 15.9753 27.5628C16.0418 28.4045 16.0386 29.2356 15.9707 30.0504C8.06114 30.5969 1.16774 24.5268 0.52561 16.4024C0.459145 15.5606 0.462295 14.7293 0.53023 13.9148ZM21.0883 29.7659C29.0146 29.1075 34.9363 22.042 34.4034 13.9348C33.6085 13.8651 32.7979 13.8618 31.9763 13.93C24.05 14.5882 18.1282 21.6539 18.6614 29.7611C19.4561 29.831 20.2669 29.8341 21.0883 29.7659Z" fill="#81818B"/>
</g>
<defs>
<clipPath id="clip0_1_142">
<rect width="164" height="30" fill="white"/>
</clipPath>
</defs>
</svg>
