<svg width="163" height="34" viewBox="0 0 163 34" fill="none" xmlns="http://www.w3.org/2000/svg">
<g clip-path="url(#clip0_1_154)">
<path fill-rule="evenodd" clip-rule="evenodd" d="M5.59531 8.23609C8.33565 4.73387 12.7239 2.46493 17.6698 2.46493C22.6448 2.46493 27.0553 4.76065 29.7924 8.29799C29.6759 8.41181 29.5698 8.52978 29.4737 8.64759C28.9724 9.26447 28.5951 10.059 28.293 10.8659C27.6844 12.4887 27.2202 14.6085 26.7904 16.5935L26.7522 16.7719C26.3234 18.7533 25.9248 20.5959 25.4428 21.9638C25.2263 22.5783 25.021 23.0128 24.8389 23.291C24.6489 23.0105 24.4334 22.5708 24.2052 21.9475C23.6898 20.5403 23.2562 18.6263 22.7967 16.5827L22.7818 16.5157V16.5157C22.3401 14.5527 21.8717 12.4699 21.2876 10.8756C20.9941 10.0747 20.6341 9.28809 20.1632 8.67694C19.701 8.07718 18.9317 7.40029 17.8065 7.40029C16.6884 7.40029 15.9156 8.06983 15.4467 8.66287C14.9667 9.27008 14.5924 10.0534 14.2842 10.8547C13.6633 12.4682 13.1557 14.5789 12.6833 16.5666L12.6346 16.7719C12.1668 18.7409 11.7295 20.5818 11.2331 21.9523C11.0437 22.4757 10.8648 22.8739 10.703 23.1583C10.5448 22.8752 10.3704 22.4797 10.1861 21.9607C9.70994 20.6194 9.29278 18.8301 8.84475 16.9083L8.76631 16.5719C8.30211 14.583 7.79847 12.4685 7.16879 10.85C6.85594 10.0457 6.47327 9.25843 5.97809 8.64838C5.86595 8.5103 5.73853 8.37013 5.59531 8.23609ZM3.93678 10.9253C4.0673 11.1701 4.20537 11.4736 4.34812 11.8406C4.89318 13.2416 5.35491 15.1533 5.83041 17.1905L5.92296 17.5875C6.35588 19.4464 6.80622 21.38 7.33668 22.8739C7.61882 23.6684 7.95954 24.4466 8.39771 25.0514C8.81209 25.6235 9.55549 26.3623 10.6986 26.3623C11.8383 26.3623 12.5835 25.627 13.0007 25.0576C13.4426 24.4542 13.7889 23.6769 14.0767 22.8818C14.6285 21.3584 15.0983 19.3794 15.5479 17.4855V17.4854L15.6167 17.1959C16.1011 15.1574 16.5675 13.2419 17.1086 11.8358C17.3592 11.1843 17.5939 10.7305 17.7981 10.449C17.9918 10.7281 18.213 11.1747 18.4476 11.815C18.9631 13.2222 19.3962 15.1361 19.8559 17.1798L19.871 17.2467C20.3125 19.2098 20.7809 21.2926 21.365 22.8867C21.6585 23.6879 22.0185 24.4745 22.4894 25.0855C22.9517 25.6854 23.7209 26.3623 24.8459 26.3623C25.9769 26.3623 26.7434 25.6792 27.2001 25.074C27.6639 24.4599 28.0127 23.6707 28.2944 22.8708C28.8359 21.3344 29.2664 19.3408 29.6769 17.4444V17.4443L29.7357 17.169C30.1778 15.1278 30.602 13.2214 31.1259 11.8246C31.2393 11.5208 31.3511 11.2617 31.4577 11.0441C32.2604 12.7921 32.7056 14.7223 32.7056 16.7513C32.7056 24.6413 25.9741 31.0377 17.6698 31.0377C9.36565 31.0377 2.63379 24.6413 2.63379 16.7513C2.63379 14.6762 3.09941 12.7044 3.93678 10.9253ZM17.6698 -0.392334C7.70481 -0.392334 -0.373413 7.28312 -0.373413 16.7513C-0.373413 26.2194 7.70481 33.8948 17.6698 33.8948C27.635 33.8948 35.7128 26.2194 35.7128 16.7513C35.7128 7.28312 27.635 -0.392334 17.6698 -0.392334ZM18.0136 10.2098C18.0136 10.2101 18.01 10.2128 18.003 10.2167C18.01 10.2114 18.0136 10.2095 18.0136 10.2098ZM17.5979 10.2117C17.5909 10.2077 17.5875 10.2049 17.5875 10.2045C17.5875 10.2042 17.591 10.2062 17.5979 10.2117ZM24.6173 23.5623C24.6173 23.5623 24.6205 23.5592 24.627 23.5552C24.6205 23.5605 24.6173 23.5627 24.6173 23.5623ZM25.0545 23.5508C25.0615 23.5548 25.0652 23.5574 25.0652 23.5579C25.0652 23.5583 25.0615 23.5561 25.0545 23.5508ZM10.3904 23.5879C10.3903 23.5875 10.3947 23.5835 10.4034 23.5778C10.3948 23.5853 10.3904 23.5884 10.3904 23.5879ZM10.9994 23.5804C11.008 23.5862 11.0123 23.5901 11.0123 23.5906C11.0123 23.591 11.0079 23.5884 10.9994 23.5804Z" fill="#81818B"/>
<path d="M45.6758 26.9007L41.3004 12.6801H45.1329L47.728 22.9154L50.7452 12.6801H55.0302L58.0479 22.9154L60.6729 12.6801H64.5054L60.0996 26.9007H56.0865L52.8877 16.2639L49.6894 26.9007H45.6758Z" fill="#81818B"/>
<path d="M70.1287 27.2449C68.8414 27.2449 67.7851 27.0533 66.9604 26.6711C66.1361 26.2698 65.5224 25.7442 65.1197 25.0943C64.7176 24.4444 64.5165 23.7277 64.5165 22.9442C64.5165 21.6254 65.0593 20.5549 66.1456 19.733C67.2318 18.9112 68.8619 18.5002 71.0344 18.5002H74.8364V18.1562C74.8364 17.1813 74.5445 16.4646 73.9612 16.0059C73.378 15.5471 72.6535 15.3178 71.7888 15.3178C71.0039 15.3178 70.3198 15.4993 69.7366 15.8625C69.1533 16.2066 68.791 16.7226 68.6503 17.4107H64.8782C64.979 16.3786 65.3413 15.4802 65.9644 14.7157C66.6086 13.9512 67.4334 13.3682 68.4388 12.9668C69.4452 12.5463 70.5713 12.3361 71.8187 12.3361C73.9513 12.3361 75.6307 12.8425 76.8582 13.8556C78.0851 14.8686 78.6988 16.3022 78.6988 18.1562V26.9007H75.4092L75.0475 24.6072C74.6049 25.3717 73.9812 26.0022 73.1769 26.4995C72.392 26.9963 71.3761 27.2449 70.1287 27.2449ZM71.0039 24.3776C72.1106 24.3776 72.9653 24.0334 73.5685 23.3455C74.1922 22.6575 74.5849 21.8067 74.7461 20.7938H71.4565C70.4306 20.7938 69.6967 20.9754 69.2536 21.3386C68.8115 21.6824 68.59 22.1129 68.59 22.6287C68.59 23.1831 68.8115 23.6131 69.2536 23.9188C69.6967 24.2245 70.2794 24.3776 71.0039 24.3776Z" fill="#81818B"/>
<path d="M84.7788 26.9007L79.2874 12.6801H83.3304L87.1324 23.4317L90.9345 12.6801H94.978L89.4561 26.9007H84.7788Z" fill="#81818B"/>
<path d="M102.742 27.2449C101.234 27.2449 99.8961 26.9388 98.7291 26.3273C97.5625 25.7155 96.6474 24.8554 95.9833 23.7467C95.3192 22.6385 94.9879 21.3577 94.9879 19.905C94.9879 18.4333 95.3097 17.124 95.9529 15.9772C96.617 14.8304 97.5221 13.9416 98.6692 13.3108C99.8352 12.661 101.203 12.3361 102.773 12.3361C104.241 12.3361 105.539 12.6419 106.665 13.2535C107.792 13.8651 108.667 14.7061 109.29 15.7765C109.934 16.8277 110.256 18.0032 110.256 19.303C110.256 19.5132 110.246 19.733 110.226 19.9624C110.226 20.1918 110.216 20.4307 110.196 20.6792H98.8199C98.9002 21.7877 99.3029 22.6575 100.027 23.2884C100.771 23.9188 101.666 24.2343 102.713 24.2343C103.497 24.2343 104.151 24.0719 104.674 23.7467C105.216 23.403 105.619 22.9632 105.881 22.4279H109.803C109.522 23.3264 109.049 24.1485 108.385 24.8939C107.741 25.6199 106.937 26.1933 105.971 26.614C105.026 27.0343 103.949 27.2449 102.742 27.2449ZM102.773 15.3178C101.828 15.3178 100.992 15.5758 100.268 16.0919C99.5439 16.5888 99.0813 17.3534 98.8797 18.3855H106.333C106.273 17.4489 105.911 16.7035 105.247 16.1492C104.583 15.5949 103.759 15.3178 102.773 15.3178Z" fill="#81818B"/>
<path d="M112.298 26.9007V6.25781H116.16V26.9007H112.298Z" fill="#81818B"/>
<path d="M126.171 27.2449C124.663 27.2449 123.325 26.9388 122.158 26.3273C120.992 25.7155 120.077 24.8554 119.413 23.7467C118.748 22.6385 118.417 21.3577 118.417 19.905C118.417 18.4333 118.739 17.124 119.382 15.9772C120.046 14.8304 120.951 13.9416 122.098 13.3108C123.265 12.661 124.633 12.3361 126.202 12.3361C127.67 12.3361 128.968 12.6419 130.095 13.2535C131.221 13.8651 132.097 14.7061 132.72 15.7765C133.363 16.8277 133.686 18.0032 133.686 19.303C133.686 19.5132 133.675 19.733 133.655 19.9624C133.655 20.1918 133.645 20.4307 133.625 20.6792H122.249C122.329 21.7877 122.732 22.6575 123.456 23.2884C124.2 23.9188 125.096 24.2343 126.142 24.2343C126.926 24.2343 127.58 24.0719 128.103 23.7467C128.646 23.403 129.048 22.9632 129.31 22.4279H133.233C132.951 23.3264 132.478 24.1485 131.815 24.8939C131.17 25.6199 130.366 26.1933 129.4 26.614C128.455 27.0343 127.379 27.2449 126.171 27.2449ZM126.202 15.3178C125.257 15.3178 124.422 15.5758 123.697 16.0919C122.973 16.5888 122.511 17.3534 122.309 18.3855H129.762C129.702 17.4489 129.34 16.7035 128.676 16.1492C128.012 15.5949 127.188 15.3178 126.202 15.3178Z" fill="#81818B"/>
<path d="M141.913 27.2449C140.585 27.2449 139.418 27.044 138.413 26.6428C137.406 26.222 136.602 25.6487 135.998 24.9222C135.395 24.1962 135.033 23.3552 134.912 22.3996H138.804C138.925 22.9535 139.248 23.4317 139.77 23.833C140.313 24.2152 141.007 24.4064 141.852 24.4064C142.697 24.4064 143.311 24.244 143.693 23.9188C144.095 23.5941 144.296 23.2212 144.296 22.8008C144.296 22.189 144.015 21.778 143.452 21.5678C142.888 21.3386 142.104 21.1188 141.098 20.9085C140.455 20.7747 139.801 20.6123 139.137 20.4211C138.473 20.23 137.859 19.991 137.296 19.7044C136.753 19.3985 136.31 19.0163 135.968 18.5575C135.626 18.0797 135.455 17.4967 135.455 16.8086C135.455 15.5471 135.978 14.4864 137.025 13.6262C138.09 12.7661 139.579 12.3361 141.49 12.3361C143.261 12.3361 144.669 12.7279 145.715 13.5115C146.781 14.2952 147.414 15.3751 147.616 16.7513H143.965C143.743 15.7001 142.908 15.1744 141.46 15.1744C140.736 15.1744 140.173 15.3082 139.77 15.5758C139.388 15.8434 139.197 16.1779 139.197 16.5793C139.197 16.9998 139.489 17.3343 140.072 17.5828C140.656 17.8312 141.43 18.0606 142.395 18.2709C143.441 18.5002 144.397 18.7582 145.262 19.0449C146.147 19.3125 146.851 19.7235 147.375 20.2778C147.897 20.8129 148.159 21.5869 148.159 22.6C148.179 23.4795 147.937 24.2723 147.435 24.9797C146.932 25.6867 146.208 26.2411 145.262 26.6428C144.317 27.044 143.2 27.2449 141.913 27.2449Z" fill="#81818B"/>
<path d="M156.559 27.2449C155.232 27.2449 154.065 27.044 153.059 26.6428C152.053 26.222 151.249 25.6487 150.645 24.9222C150.042 24.1962 149.679 23.3552 149.559 22.3996H153.451C153.572 22.9535 153.894 23.4317 154.417 23.833C154.96 24.2152 155.654 24.4064 156.499 24.4064C157.344 24.4064 157.958 24.244 158.34 23.9188C158.742 23.5941 158.943 23.2212 158.943 22.8008C158.943 22.189 158.662 21.778 158.098 21.5678C157.535 21.3386 156.751 21.1188 155.745 20.9085C155.101 20.7747 154.447 20.6123 153.783 20.4211C153.12 20.23 152.506 19.991 151.943 19.7044C151.4 19.3985 150.957 19.0163 150.615 18.5575C150.273 18.0797 150.102 17.4967 150.102 16.8086C150.102 15.5471 150.625 14.4864 151.671 13.6262C152.737 12.7661 154.226 12.3361 156.137 12.3361C157.907 12.3361 159.315 12.7279 160.361 13.5115C161.427 14.2952 162.061 15.3751 162.263 16.7513H158.611C158.39 15.7001 157.555 15.1744 156.107 15.1744C155.382 15.1744 154.819 15.3082 154.417 15.5758C154.035 15.8434 153.844 16.1779 153.844 16.5793C153.844 16.9998 154.135 17.3343 154.719 17.5828C155.302 17.8312 156.076 18.0606 157.042 18.2709C158.088 18.5002 159.044 18.7582 159.909 19.0449C160.794 19.3125 161.498 19.7235 162.021 20.2778C162.544 20.8129 162.806 21.5869 162.806 22.6C162.826 23.4795 162.584 24.2723 162.081 24.9797C161.578 25.6867 160.854 26.2411 159.909 26.6428C158.963 27.044 157.847 27.2449 156.559 27.2449Z" fill="#81818B"/>
</g>
<defs>
<clipPath id="clip0_1_154">
<rect width="163" height="34" fill="white"/>
</clipPath>
</defs>
</svg>
